<svg width="38" height="52" viewBox="0 0 38 52" fill="none" xmlns="http://www.w3.org/2000/svg">
<g opacity="0.9">
<path d="M32.2415 21.4236L30.614 22.5861L32.2415 21.4236ZM19.0326 2.9312L17.4051 4.0936L17.4051 4.09368L19.0326 2.9312ZM22.3546 16.9994L20.6905 18.1088V18.1088L22.3546 16.9994ZM9.04534 16.9994L10.7094 18.1088L9.04534 16.9994ZM10.8183 14.34L12.4824 15.4494C13.0881 14.5408 12.8531 13.3143 11.9544 12.694C11.0557 12.0737 9.82553 12.2889 9.19082 13.1775L10.8183 14.34ZM5.75851 21.4236L7.38598 22.5861H7.38598L5.75851 21.4236ZM33.5 32.5856C33.5 40.5937 27.0081 47.0856 19 47.0856V51.0856C29.2173 51.0856 37.5 42.8028 37.5 32.5856H33.5ZM33.5 31.5917V32.5856H37.5V31.5917H33.5ZM30.614 22.5861C32.491 25.2139 33.5 28.3625 33.5 31.5917H37.5C37.5 27.5288 36.2305 23.5673 33.8689 20.2612L30.614 22.5861ZM17.4051 4.09368L30.614 22.5861L33.8689 20.2612L20.6601 1.76873L17.4051 4.09368ZM20.5949 4.0936C19.8133 5.18804 18.1867 5.18804 17.4051 4.0936L20.6601 1.7688C19.8465 0.629638 18.1535 0.629638 17.3399 1.7688L20.5949 4.0936ZM17.1618 12.8157L20.6905 18.1088L24.0187 15.89L20.49 10.5969L17.1618 12.8157ZM20.6905 18.1088C21.5118 19.3406 21.95 20.788 21.95 22.2685H25.95C25.95 19.9983 25.278 17.7789 24.0187 15.89L20.6905 18.1088ZM21.95 22.2685V23.5174H25.95V22.2685H21.95ZM21.95 23.5174C21.95 26.9692 19.1518 29.7674 15.7 29.7674V33.7674C21.3609 33.7674 25.95 29.1783 25.95 23.5174H21.95ZM15.7 29.7674C12.2482 29.7674 9.44999 26.9692 9.44999 23.5174H5.44999C5.44999 29.1783 10.0391 33.7674 15.7 33.7674V29.7674ZM9.44999 23.5174V22.2685H5.44999V23.5174H9.44999ZM9.44999 22.2685C9.44999 20.788 9.88822 19.3406 10.7094 18.1088L7.38124 15.89C6.12197 17.7789 5.44999 19.9983 5.44999 22.2685H9.44999ZM10.7094 18.1088L12.4824 15.4494L9.15418 13.2306L7.38124 15.89L10.7094 18.1088ZM7.38598 22.5861L12.4458 15.5024L9.19082 13.1775L4.13105 20.2612L7.38598 22.5861ZM4.5 31.5917C4.5 28.3625 5.50901 25.2139 7.38598 22.5861L4.13105 20.2612C1.7695 23.5673 0.5 27.5288 0.5 31.5917H4.5ZM4.5 32.5856V31.5917H0.5V32.5856H4.5ZM19 47.0856C10.9919 47.0856 4.5 40.5937 4.5 32.5856H0.5C0.5 42.8028 8.78273 51.0856 19 51.0856V47.0856ZM17.3399 1.76873C14.9915 5.05651 14.9206 9.45388 17.1618 12.8157L20.49 10.5969C19.1706 8.61783 19.2124 6.02916 20.5949 4.09368L17.3399 1.76873Z" fill="white"/>
</g>
</svg>
