<svg width="101" height="31" viewBox="0 0 101 31" fill="none" xmlns="http://www.w3.org/2000/svg">
<path d="M25.3513 1.88379H4.77977C2.74737 1.88379 1.09979 3.53137 1.09979 5.56377V26.9274C1.09979 28.9598 2.74737 30.6074 4.77977 30.6074H25.3513C27.3837 30.6074 29.0313 28.9598 29.0313 26.9274V5.56377C29.0313 3.53137 27.3837 1.88379 25.3513 1.88379Z" fill="white"/>
<path d="M24.8416 4.67497L24.9413 2.08133C24.9413 2.08133 24.5423 0.285729 23.9438 0.285729C22.6469 0.285729 20.7516 -0.711823 18.5889 3.7233C16.4262 8.15843 24.8416 4.67497 24.8416 4.67497Z" fill="white"/>
<path d="M9.57895 3.57757C9.57895 3.57757 8.68115 1.98148 8.11454 1.74805C7.51601 1.49966 4.89045 1.28319 4.5004 3.84291C4.05649 6.74879 8.68115 5.47292 9.57895 3.57757Z" fill="white"/>
<path d="M7.38436 1.82886C7.58673 1.88893 7.7788 1.97941 7.95397 2.0972C8.08261 2.18625 8.20586 2.28285 8.32306 2.38649C8.52595 2.56661 8.71471 2.76204 8.88768 2.97106C9.76952 4.02049 10.4449 5.50485 11.0663 6.87449C11.9242 8.76984 12.6096 10.743 13.2221 12.5995C13.9011 12.4728 14.5903 12.409 15.281 12.4089C15.4366 12.4089 15.5922 12.4089 15.7459 12.4189L15.7997 12.2094C16.5858 9.12497 17.4686 5.59762 18.9859 2.98303L18.9919 2.97106H9.47025C9.31171 2.76569 9.14046 2.57045 8.95751 2.38649H19.346C19.4647 2.19895 19.5904 2.01141 19.7251 1.82886H8.2672C7.6557 1.46874 6.68508 1.37298 6.0257 1.81689C6.46962 1.6851 6.94283 1.68926 7.38436 1.82886Z" fill="#63BC47"/>
<path d="M26.0167 1.82885H25.1628C24.8934 0.693634 23.9657 -0.184214 22.4803 0.0332527C22.1136 0.0868811 21.7606 0.210854 21.4409 0.398358C21.6407 0.319701 21.8489 0.264468 22.0614 0.233762C23.4629 0.0262708 24.3617 0.790397 24.6879 1.82985C24.7455 2.01137 24.785 2.19816 24.8056 2.38748C24.8056 2.4224 24.8136 2.45831 24.8166 2.49322C24.8296 2.65383 24.8336 2.81344 24.8316 2.97205C24.8156 4.0514 24.4705 5.06691 24.1443 5.97968C23.1537 8.75886 21.7382 11.2109 20.3166 13.598C21.2339 14.0579 22.0824 14.6438 22.8375 15.3387L21.8738 16.1019L21.5406 16.3692C19.647 14.7119 17.1725 13.8747 14.6616 14.0417C12.1506 14.2088 9.80889 15.3664 8.15147 17.26C8.11057 17.3059 8.07067 17.3528 8.03076 17.4007C7.94198 17.5064 7.85519 17.6142 7.7704 17.7249L6.47757 16.7044C7.10943 15.8857 7.85401 15.1606 8.68915 14.5507C7.6477 13.0613 6.57134 11.3904 5.66357 9.43321C4.78073 7.53786 3.8949 4.73772 4.79071 2.97205H4.06947C3.55857 2.97284 3.06882 3.17615 2.70756 3.53741C2.3463 3.89867 2.14299 4.38842 2.1422 4.89932V27.6256C2.14299 28.1365 2.3463 28.6263 2.70756 28.9875C3.06882 29.3488 3.55857 29.5521 4.06947 29.5529H26.0157C26.5268 29.5526 27.017 29.3495 27.3785 28.9882C27.7401 28.6268 27.9434 28.1368 27.9439 27.6256V4.89833C27.9432 4.38725 27.7397 3.89735 27.3782 3.53606C27.0168 3.17477 26.5267 2.97158 26.0157 2.97105H25.2406C25.2515 2.77635 25.2515 2.58118 25.2406 2.38648H26.0167C26.3468 2.38622 26.6737 2.45098 26.9788 2.57707C27.2839 2.70316 27.5612 2.88811 27.7948 3.12136C28.0284 3.3546 28.2138 3.63158 28.3404 3.93647C28.467 4.24137 28.5322 4.56821 28.5325 4.89833V27.6256C28.5317 28.2915 28.2668 28.93 27.7959 29.4009C27.325 29.8718 26.6866 30.1367 26.0207 30.1375H4.07446C3.40878 30.1361 2.77075 29.871 2.30013 29.4002C1.82951 28.9294 1.56467 28.2913 1.56362 27.6256V4.89833C1.56441 4.23256 1.82917 3.59427 2.29984 3.12341C2.77052 2.65255 3.4087 2.38754 4.07446 2.38648H5.18973C5.28843 2.27811 5.39586 2.17802 5.51094 2.08722C5.65414 1.9747 5.81583 1.88795 5.98877 1.83085H4.06947C3.25599 1.83164 2.47602 2.15501 1.90061 2.73004C1.3252 3.30508 1.00132 4.08484 1 4.89833V27.6256C1.00106 28.4394 1.32478 29.2195 1.90019 29.7949C2.4756 30.3703 3.25572 30.694 4.06947 30.6951H26.0157C26.8295 30.694 27.6097 30.3703 28.1853 29.7949C28.7609 29.2196 29.0848 28.4395 29.0861 27.6256V4.89833C29.0851 4.08458 28.7614 3.30446 28.186 2.72905C27.6105 2.15364 26.8304 1.82991 26.0167 1.82885ZM14.059 15.7607C14.8296 15.7607 15.583 15.9892 16.2237 16.4174C16.8645 16.8455 17.3639 17.4541 17.6588 18.166C17.9537 18.878 18.0309 19.6615 17.8806 20.4173C17.7302 21.1731 17.3591 21.8674 16.8142 22.4123C16.2693 22.9573 15.575 23.3284 14.8191 23.4787C14.0633 23.6291 13.2799 23.5519 12.5679 23.257C11.8559 22.9621 11.2474 22.4627 10.8192 21.8219C10.3911 21.1811 10.1625 20.4278 10.1625 19.6571C10.1625 18.6237 10.5731 17.6327 11.3038 16.9019C12.0345 16.1712 13.0256 15.7607 14.059 15.7607ZM15.7738 26.0355C12.3352 26.8625 8.97146 26.1203 6.77684 24.3237L7.94298 23.4708C9.80442 24.9522 12.6185 25.5587 15.4945 24.8674C18.3704 24.1761 20.582 22.3735 21.5726 20.2198L22.9811 20.4841C21.8249 23.0578 19.1844 25.2185 15.7758 26.0385L15.7738 26.0355Z" fill="#63BC47"/>
<path d="M11.0922 19.6571C11.0918 20.3108 11.3072 20.9464 11.7051 21.4652C12.1029 21.9839 12.6609 22.3568 13.2924 22.5259C13.924 22.695 14.5936 22.6508 15.1975 22.4002C15.8013 22.1496 16.3055 21.7067 16.6317 21.1401C16.958 20.5736 17.088 19.9152 17.0017 19.2672C16.9154 18.6192 16.6174 18.0178 16.1542 17.5564C15.691 17.0951 15.0885 16.7996 14.4401 16.7159C13.7917 16.6321 13.1338 16.7648 12.5686 17.0933C12.8865 17.0086 13.223 17.0255 13.5308 17.1416C13.8387 17.2577 14.1025 17.4672 14.2852 17.7408C14.468 18.0144 14.5605 18.3383 14.5499 18.6671C14.5393 18.996 14.4261 19.3132 14.2261 19.5745C14.026 19.8357 13.7493 20.0278 13.4346 20.1238C13.1199 20.2198 12.7831 20.215 12.4713 20.1099C12.1595 20.0048 11.8884 19.8048 11.696 19.5379C11.5036 19.271 11.3996 18.9506 11.3985 18.6216C11.3976 18.4994 11.4114 18.3775 11.4394 18.2585C11.2097 18.6887 11.0904 19.1693 11.0922 19.6571Z" fill="#63BC47"/>
<path d="M35.2612 19.2009C31.2261 19.2009 31.2261 25.9204 35.2612 25.9204C35.9488 25.9235 36.6262 25.754 37.2313 25.4276L37.5027 27.708C36.7926 28.0029 36.0329 28.1599 35.2642 28.1709C28.3501 28.1709 28.3641 16.9823 35.2642 16.9823C35.958 16.9737 36.6449 17.121 37.2742 17.4132L37.0318 19.6787C36.4994 19.3534 35.8849 19.1876 35.2612 19.2009Z" fill="white"/>
<path d="M42.1653 16.72H42.3787L46.6682 28.14H44.3738L43.9609 26.9539H40.5831L40.1841 28.14H37.8738L42.1653 16.72ZM43.2057 24.8879L42.279 22.022L41.3213 24.8879H43.2057Z" fill="white"/>
<path d="M55.5634 16.9504H56.2049V28.14H54.1379L54.1519 21.9911L51.5433 24.9498L48.9347 21.9911V28.14H46.8668V16.9504H47.5232L51.5433 21.7906L55.5634 16.9504Z" fill="white"/>
<path d="M57.0577 25.1193C57.8883 25.7552 58.9219 26.0672 59.9656 25.9972C60.5641 25.9513 61.0779 25.4894 61.021 24.8879C60.9781 24.2564 60.5362 23.9791 59.9656 23.7626C58.3695 23.1312 56.943 22.2524 56.943 20.4029C56.943 18.5534 58.1261 17.1359 59.8229 17.0431C60.3506 17.0122 61.0499 17.0122 62.3607 17.506L62.1044 19.6328C60.9781 19.139 60.3367 19.1549 60.0235 19.1699C59.2962 19.2168 58.968 19.7864 59.0109 20.4029C59.0538 21.0194 59.5666 21.3007 60.1511 21.5132C61.7343 22.1446 63.1029 23.1312 63.1029 24.8879C63.1029 26.7224 61.9328 28.125 60.0235 28.2327C59.4529 28.2786 58.184 28.2018 56.8004 27.4346L57.0577 25.1193Z" fill="white"/>
<path d="M38.0613 15.5449L35.0368 9.81795H33.5923V15.5449H30.5927V0.544678H36.5091C41.858 0.544678 42.3827 8.07621 37.9775 9.35608L41.46 15.5409L38.0613 15.5449ZM33.5923 6.90109H36.2338C38.2688 6.90109 38.2688 3.54532 36.2338 3.54532H33.5903L33.5923 6.90109Z" fill="white"/>
<path d="M47.8254 0H48.1406L54.4541 15.5449H51.0774L50.4689 13.9289H45.4971L44.9125 15.5449H41.5118L47.8254 0ZM49.3566 11.1177L47.994 7.21631L46.5884 11.1177H49.3566Z" fill="white"/>
<path d="M54.501 0.524658H60.4375C63.102 0.524658 64.7599 2.43298 64.696 5.0765C64.6541 6.20872 64.2561 7.38384 63.3124 8.03425C63.7938 8.37198 64.1864 8.82119 64.4565 9.34354C64.7266 9.86588 64.8663 10.4458 64.8636 11.0339C64.8636 13.5517 62.8685 15.5448 60.4365 15.5448H54.501V0.524658ZM57.5226 6.5449H60.1861C61.047 6.5449 61.5707 5.85259 61.5707 5.0336C61.5707 4.19566 61.047 3.5243 60.1861 3.5243H57.5226V6.5449ZM57.5226 12.5452H60.1861C60.3851 12.5472 60.5825 12.5095 60.7668 12.4342C60.9511 12.359 61.1185 12.2477 61.2592 12.107C61.3999 11.9663 61.5112 11.7989 61.5864 11.6146C61.6617 11.4303 61.6994 11.2329 61.6974 11.0339C61.6995 10.8359 61.6616 10.6395 61.5861 10.4564C61.5106 10.2733 61.399 10.1073 61.258 9.96832C61.1169 9.82932 60.9493 9.72016 60.7652 9.64735C60.581 9.57454 60.3841 9.53957 60.1861 9.54454H57.5226V12.5452Z" fill="white"/>
<path d="M65.8183 0.524658H71.7557C74.4202 0.524658 76.0771 2.43298 76.0143 5.0765C75.9724 6.20872 75.5734 7.38384 74.6297 8.03425C75.1116 8.37163 75.5046 8.82073 75.7751 9.34311C76.0456 9.8655 76.1855 10.4456 76.1829 11.0339C76.1829 13.5517 74.1878 15.5448 71.7557 15.5448H65.8183V0.524658ZM68.8399 6.5449H71.5044C72.3642 6.5449 72.888 5.85259 72.888 5.0336C72.888 4.19566 72.3642 3.5243 71.5044 3.5243H68.8399V6.5449ZM68.8399 12.5452H71.5044C71.7033 12.5471 71.9006 12.5092 72.0848 12.4339C72.2689 12.3586 72.4362 12.2474 72.5768 12.1066C72.7174 11.9659 72.8286 11.7986 72.9038 11.6144C72.979 11.4302 73.0167 11.2328 73.0147 11.0339C73.0169 10.8359 72.9791 10.6395 72.9038 10.4565C72.8284 10.2734 72.7169 10.1074 72.5759 9.96837C72.4349 9.82936 72.2674 9.72018 72.0833 9.64736C71.8992 9.57454 71.7023 9.53957 71.5044 9.54454H68.8399V12.5452Z" fill="white"/>
<path d="M80.0524 0.544678H77.0518V15.5449H80.0524V0.544678Z" fill="white"/>
<path d="M84.7928 15.545V3.54437H81.0579V0.565674H91.5263V3.54437H87.7924V15.545H84.7928Z" fill="white"/>
<path d="M92.1098 11.4329C93.3598 12.3055 94.8691 12.7275 96.3903 12.63C97.2702 12.5671 98.0253 11.9387 97.9425 11.1197C97.8827 10.2578 97.2283 9.87575 96.3863 9.58646C94.0361 8.72656 91.9382 7.5305 91.9382 5.01367C91.9382 2.49684 93.679 0.565572 96.1759 0.43988C96.952 0.397982 97.9804 0.397982 99.9097 1.06934L99.5326 3.96224C97.8747 3.29089 96.931 3.31284 96.4691 3.33279C95.3998 3.39563 94.9169 4.17273 94.9808 5.01167C95.0636 5.85061 95.7978 6.22769 96.6577 6.52197C98.987 7.38186 101 8.72457 101 11.1157C101 13.6096 99.2802 15.5219 96.4691 15.6685C95.6302 15.7314 93.7628 15.6266 91.7288 14.5772L92.1098 11.4329Z" fill="white"/>
<path d="M68.4548 27.6053C68.4548 28.2039 67.563 28.2039 67.563 27.6053C67.563 27.0068 68.4548 27.0128 68.4548 27.6053Z" fill="white"/>
<path d="M67.3286 26.5589C67.5587 26.2292 67.6698 25.831 67.6438 25.4297C67.6278 25.1973 67.4613 24.9977 67.2448 25.0197C67.0283 25.0416 66.9176 25.2082 66.8458 25.4297C66.6183 26.0492 66.3031 26.6028 65.6387 26.6028C64.9743 26.6028 64.4646 26.1439 64.4317 25.4846C64.4207 25.2801 64.4207 25.0087 64.5973 24.499L65.3614 24.5987C65.1848 25.0366 65.1898 25.286 65.1958 25.4077C65.1952 25.4639 65.2066 25.5195 65.2294 25.5708C65.2521 25.6222 65.2856 25.668 65.3276 25.7053C65.3696 25.7426 65.4191 25.7704 65.4728 25.7868C65.5265 25.8033 65.5831 25.8081 65.6387 25.8008C65.8602 25.7778 65.9599 25.5843 66.0377 25.3579C66.2652 24.7434 66.6193 24.2117 67.2508 24.2117C67.9092 24.2117 68.4129 24.6656 68.4478 25.4087C68.4624 25.8439 68.3616 26.2751 68.1555 26.6587L67.3286 26.5589Z" fill="white"/>
<path d="M68.4139 23.6022H64.4556V21.621H65.2466V22.8111H66.0387V21.7707H66.8298V22.8111H67.6218V21.5542H68.4139V23.6022Z" fill="white"/>
<path d="M66.3041 20.0319L64.4496 21.1052V20.1506L65.547 19.552L64.4496 18.9595V18.0238L66.3041 19.1041L68.4139 17.8562V18.7919L67.0583 19.552L68.4149 20.3162V21.2798L66.3041 20.0319Z" fill="white"/>
</svg>
